<svg xmlns="http://www.w3.org/2000/svg" viewBox="0 0 150 150">
  <path d="M0 0h150v150H0V0z" fill="none"/>
  <path fill="#b49d49" d="M75 6.5l54.3 123.2H94.9l-4.5-10.6H85c-1.1-1.6-1-1.9-2.8-2.1-4.1-.2-4.6-.7-4.6-3.8 0-2.7 1.2-7.9 1.3-9.9.1-2.5-.2-3.5-.2-5.2 0-1.8 1.2-3.8 1.4-8 .1-2.4-.1-4.9-.8-7.2.9-.1 1.9-.7 2.3-1.5.4-1 1.8-6.7 1.8-9 0-.8-.1-1.6-.3-2.4-1-2.3-3.9-1.9-5.2-3.4-.4-.5-.7-.4-.7-2.1.7-.9.9-2.3.9-4.3-.1-1.7-1.5-3-3.1-2.9-1.6.1-2.9 1.3-2.9 2.9 0 2 .2 3.4.9 4.3 0 1.7-.3 1.6-.7 2.1-1.3 1.5-4.2 1.1-5.2 3.4-.2.8-.3 1.6-.3 2.4 0 2.3 1.4 8 1.8 9 .3.7 1.4 1.4 2.3 1.5-.7 2.3-.9 4.8-.8 7.2.2 4.2 1.4 6.2 1.4 8 0 1.8-.3 2.7-.2 5.2.1 2 1.3 7.1 1.3 9.9 0 3-.5 3.6-4.6 3.8-1.8.2-1.7.5-2.8 2.1h-5.5l-4.5 10.6H20.7L75 6.5z" />
</svg>